<svg xmlns="http://www.w3.org/2000/svg" width="896" height="79" viewBox="0 0 896 79" role="img" aria-label="Reference Tools · 5G Broadcast - TV and Radio Services: 5G Broadcast Transmitter">
  <title>Reference Tools · 5G Broadcast - TV and Radio Services: 5G Broadcast Transmitter</title>
  <defs>
    <linearGradient id="brand" x1="0" y1="0" x2="1" y2="0">
      <stop offset="0" stop-color="#003580"/>
      <stop offset="1" stop-color="#00a0d2"/>
    </linearGradient>
    <linearGradient id="shade" x1="0" y1="0" x2="1" y2="0">
      <stop offset="0" stop-color="#000" stop-opacity="0.62"/>
      <stop offset="0.45" stop-color="#000" stop-opacity="0.62"/>
      <stop offset="1" stop-color="#000" stop-opacity="0.18"/>
    </linearGradient>
    <clipPath id="card">
      <rect width="896" height="79" rx="14"/>
    </clipPath>
  </defs>
  <g clip-path="url(#card)">
    <rect width="896" height="79" fill="url(#brand)"/>
    <rect width="896" height="79" fill="url(#shade)"/>
  </g>
  <rect x="22.5" y="13.5" width="52" height="52" rx="12" fill="#fff" fill-opacity="0.16"/>
  <g transform="translate(34.5 25.5) scale(1.16667)" fill="none" stroke="#fff" stroke-width="2" stroke-linecap="round" stroke-linejoin="round"><path d="M11 12a1 1 0 1 0 2 0a1 1 0 1 0 -2 0"/><path d="M16.616 13.924a5 5 0 1 0 -9.23 0"/><path d="M20.307 15.469a9 9 0 1 0 -16.615 0"/><path d="M9 21l3 -9l3 9"/><path d="M10 19h4"/></g>
  <path d="M92.7 22.7Q94.4 22.7 95.4 23.3Q96.3 24 96.3 25.3Q96.3 26.1 95.9 26.6Q95.6 27.1 94.8 27.4Q95.1 27.7 95.3 28.1Q95.6 28.5 95.9 28.9Q96.1 29.3 96.3 29.7Q96.6 30.2 96.8 30.6H94.8Q94.6 30.2 94.4 29.8Q94.2 29.4 93.9 29.1Q93.7 28.7 93.5 28.4Q93.2 28 93 27.8H92.2V30.6H90.4V22.9Q91 22.8 91.6 22.8Q92.2 22.7 92.7 22.7ZM92.8 24.2Q92.6 24.2 92.4 24.2Q92.3 24.2 92.2 24.2V26.4H92.7Q93.6 26.4 94.1 26.1Q94.5 25.9 94.5 25.3Q94.5 24.7 94.1 24.5Q93.6 24.2 92.8 24.2Z M98.6 30.6V22.8H103.8V24.3H100.3V25.8H103.5V27.2H100.3V29.1H104.1V30.6Z M106.1 30.6V22.8H111.3V24.3H107.8V25.9H110.9V27.4H107.8V30.6Z M113.2 30.6V22.8H118.5V24.3H115V25.8H118.1V27.2H115V29.1H118.7V30.6Z M123 22.7Q124.7 22.7 125.7 23.3Q126.6 24 126.6 25.3Q126.6 26.1 126.2 26.6Q125.8 27.1 125.1 27.4Q125.4 27.7 125.6 28.1Q125.9 28.5 126.1 28.9Q126.4 29.3 126.6 29.7Q126.9 30.2 127.1 30.6H125.1Q124.9 30.2 124.7 29.8Q124.5 29.4 124.2 29.1Q124 28.7 123.8 28.4Q123.5 28 123.3 27.8H122.5V30.6H120.7V22.9Q121.3 22.8 121.9 22.8Q122.5 22.7 123 22.7ZM123.1 24.2Q122.9 24.2 122.7 24.2Q122.6 24.2 122.5 24.2V26.4H122.9Q123.9 26.4 124.4 26.1Q124.8 25.9 124.8 25.3Q124.8 24.7 124.4 24.5Q123.9 24.2 123.1 24.2Z M128.9 30.6V22.8H134.1V24.3H130.6V25.8H133.7V27.2H130.6V29.1H134.4V30.6Z M141.6 30.6Q140.8 29.3 140 28Q139.1 26.7 138.1 25.5V30.6H136.4V22.8H137.8Q138.2 23.2 138.6 23.7Q139.1 24.3 139.5 24.9Q140 25.5 140.5 26.1Q140.9 26.8 141.3 27.4V22.8H143.1V30.6Z M149.1 30.8Q147.2 30.8 146.2 29.7Q145.2 28.6 145.2 26.7Q145.2 25.7 145.5 25Q145.8 24.2 146.3 23.7Q146.9 23.2 147.6 22.9Q148.3 22.6 149.2 22.6Q149.7 22.6 150.1 22.7Q150.5 22.8 150.8 22.9Q151.1 23 151.3 23.1Q151.5 23.2 151.6 23.2L151.1 24.6Q150.7 24.4 150.3 24.3Q149.8 24.2 149.2 24.2Q148.8 24.2 148.4 24.3Q148 24.4 147.7 24.7Q147.4 25 147.2 25.5Q147 26 147 26.7Q147 27.2 147.2 27.7Q147.3 28.1 147.5 28.5Q147.8 28.8 148.2 29Q148.7 29.2 149.3 29.2Q149.6 29.2 149.9 29.2Q150.3 29.1 150.5 29.1Q150.7 29 150.9 28.9Q151.1 28.8 151.2 28.8L151.7 30.2Q151.3 30.4 150.7 30.6Q150 30.8 149.1 30.8Z M153.5 30.6V22.8H158.8V24.3H155.3V25.8H158.4V27.2H155.3V29.1H159V30.6Z M170.2 22.8V24.3H167.8V30.6H166.1V24.3H163.7V22.8Z M173.4 26.7Q173.4 27.3 173.6 27.7Q173.7 28.2 174 28.5Q174.2 28.9 174.6 29Q175 29.2 175.5 29.2Q176 29.2 176.4 29Q176.8 28.9 177 28.5Q177.3 28.2 177.4 27.7Q177.6 27.3 177.6 26.7Q177.6 26.1 177.4 25.7Q177.3 25.2 177 24.9Q176.8 24.5 176.4 24.3Q176 24.2 175.5 24.2Q175 24.2 174.6 24.4Q174.2 24.5 174 24.9Q173.7 25.2 173.6 25.7Q173.4 26.1 173.4 26.7ZM179.4 26.7Q179.4 27.7 179.1 28.5Q178.8 29.2 178.3 29.7Q177.8 30.2 177 30.5Q176.3 30.8 175.5 30.8Q174.7 30.8 174 30.5Q173.3 30.2 172.8 29.7Q172.2 29.2 171.9 28.5Q171.6 27.7 171.6 26.7Q171.6 25.7 171.9 24.9Q172.3 24.2 172.8 23.7Q173.3 23.1 174 22.9Q174.7 22.6 175.5 22.6Q176.3 22.6 177 22.9Q177.7 23.1 178.3 23.7Q178.8 24.2 179.1 24.9Q179.4 25.7 179.4 26.7Z M183 26.7Q183 27.3 183.1 27.7Q183.3 28.2 183.5 28.5Q183.8 28.9 184.2 29Q184.6 29.2 185.1 29.2Q185.6 29.2 185.9 29Q186.3 28.9 186.6 28.5Q186.9 28.2 187 27.7Q187.1 27.3 187.1 26.7Q187.1 26.1 187 25.7Q186.9 25.2 186.6 24.9Q186.3 24.5 185.9 24.3Q185.6 24.2 185.1 24.2Q184.6 24.2 184.2 24.4Q183.8 24.5 183.5 24.9Q183.3 25.2 183.1 25.7Q183 26.1 183 26.7ZM189 26.7Q189 27.7 188.7 28.5Q188.4 29.2 187.8 29.7Q187.3 30.2 186.6 30.5Q185.9 30.8 185.1 30.8Q184.3 30.8 183.6 30.5Q182.9 30.2 182.3 29.7Q181.8 29.2 181.5 28.5Q181.2 27.7 181.2 26.7Q181.2 25.7 181.5 24.9Q181.8 24.2 182.4 23.7Q182.9 23.1 183.6 22.9Q184.3 22.6 185.1 22.6Q185.9 22.6 186.6 22.9Q187.3 23.1 187.8 23.7Q188.3 24.2 188.6 24.9Q189 25.7 189 26.7Z M196.3 29.1V30.6H191.1V22.8H192.8V29.1Z M200.2 29.3Q200.6 29.3 200.8 29.2Q201.1 29.1 201.2 29Q201.4 28.9 201.4 28.8Q201.5 28.6 201.5 28.5Q201.5 28.1 201.1 27.8Q200.8 27.6 199.9 27.3Q199.5 27.1 199.1 27Q198.7 26.8 198.4 26.5Q198.1 26.3 197.9 25.9Q197.7 25.5 197.7 25Q197.7 24.4 198 24Q198.2 23.6 198.5 23.3Q198.9 23 199.4 22.8Q200 22.6 200.6 22.6Q201.4 22.6 202 22.8Q202.6 23 202.9 23.2L202.4 24.5Q202.1 24.4 201.7 24.3Q201.3 24.1 200.7 24.1Q200.1 24.1 199.8 24.3Q199.5 24.5 199.5 24.8Q199.5 25 199.6 25.2Q199.8 25.3 199.9 25.5Q200.1 25.6 200.4 25.7Q200.6 25.8 200.9 25.9Q201.5 26.1 202 26.3Q202.4 26.5 202.7 26.8Q203 27.1 203.1 27.5Q203.3 27.9 203.3 28.5Q203.3 29.6 202.5 30.2Q201.8 30.8 200.2 30.8Q199.7 30.8 199.3 30.7Q198.9 30.6 198.6 30.5Q198.2 30.5 198 30.4Q197.8 30.3 197.6 30.2L198.1 28.8Q198.5 29 199 29.1Q199.5 29.3 200.2 29.3Z M210.2 27.3Q210.2 27.8 209.9 28.1Q209.6 28.3 209.2 28.3Q208.8 28.3 208.5 28.1Q208.1 27.8 208.1 27.3Q208.1 26.8 208.5 26.5Q208.8 26.2 209.2 26.2Q209.6 26.2 209.9 26.5Q210.2 26.8 210.2 27.3Z M218.7 28.3Q218.7 28 218.5 27.7Q218.4 27.5 218 27.3Q217.6 27.1 217 27Q216.4 27 215.5 27Q215.6 25.9 215.7 24.8Q215.8 23.8 215.8 22.8H220.1V24.2H217.2Q217.2 24.6 217.2 25Q217.2 25.4 217.1 25.7Q218.8 25.8 219.6 26.4Q220.3 27.1 220.3 28.3Q220.3 28.8 220.1 29.3Q220 29.7 219.6 30.1Q219.2 30.4 218.6 30.6Q218 30.8 217.3 30.8Q217 30.8 216.6 30.7Q216.3 30.7 216 30.6Q215.7 30.6 215.4 30.5Q215.2 30.4 215 30.4L215.3 29Q215.6 29.1 216.1 29.2Q216.5 29.3 217.2 29.3Q218 29.3 218.3 29Q218.7 28.7 218.7 28.3Z M226.4 24.2Q225.2 24.2 224.6 24.8Q224.1 25.5 224.1 26.7Q224.1 27.3 224.2 27.7Q224.3 28.2 224.6 28.5Q224.9 28.9 225.3 29.1Q225.7 29.3 226.2 29.3Q226.5 29.3 226.7 29.2Q226.9 29.2 227.1 29.2V26.5H228.8V30.3Q228.5 30.5 227.8 30.6Q227.1 30.7 226.1 30.7Q225.2 30.7 224.5 30.5Q223.8 30.2 223.3 29.7Q222.8 29.2 222.5 28.4Q222.2 27.7 222.2 26.7Q222.2 25.7 222.5 25Q222.8 24.2 223.4 23.7Q223.9 23.2 224.6 22.9Q225.3 22.6 226.1 22.6Q226.7 22.6 227.1 22.7Q227.6 22.8 227.9 22.9Q228.2 23 228.4 23.1Q228.6 23.2 228.7 23.2L228.2 24.6Q227.9 24.4 227.4 24.3Q226.9 24.2 226.4 24.2Z M237.1 30.7Q236.5 30.7 235.8 30.7Q235.2 30.6 234.5 30.5V22.9Q235.1 22.8 235.7 22.8Q236.3 22.7 236.9 22.7Q237.6 22.7 238.3 22.8Q238.9 22.9 239.3 23.2Q239.8 23.4 240 23.9Q240.3 24.3 240.3 24.9Q240.3 25.8 239.4 26.4Q240.1 26.7 240.4 27.1Q240.7 27.6 240.7 28.2Q240.7 29.5 239.8 30.1Q238.9 30.7 237.1 30.7ZM236.2 27.2V29.2Q236.4 29.2 236.7 29.3Q236.9 29.3 237.1 29.3Q237.9 29.3 238.4 29Q238.9 28.8 238.9 28.2Q238.9 27.7 238.5 27.4Q238.1 27.2 237.3 27.2ZM236.2 25.9H237.1Q237.9 25.9 238.2 25.7Q238.6 25.4 238.6 25Q238.6 24.5 238.2 24.3Q237.9 24.1 237.2 24.1Q237 24.1 236.7 24.1Q236.4 24.1 236.2 24.2Z M245 22.7Q246.8 22.7 247.7 23.3Q248.7 24 248.7 25.3Q248.7 26.1 248.3 26.6Q247.9 27.1 247.2 27.4Q247.4 27.7 247.7 28.1Q248 28.5 248.2 28.9Q248.5 29.3 248.7 29.7Q248.9 30.2 249.1 30.6H247.2Q247 30.2 246.7 29.8Q246.5 29.4 246.3 29.1Q246.1 28.7 245.8 28.4Q245.6 28 245.4 27.8H244.5V30.6H242.8V22.9Q243.3 22.8 243.9 22.8Q244.6 22.7 245 22.7ZM245.1 24.2Q245 24.2 244.8 24.2Q244.6 24.2 244.5 24.2V26.4H245Q246 26.4 246.4 26.1Q246.9 25.9 246.9 25.3Q246.9 24.7 246.4 24.5Q246 24.2 245.1 24.2Z M252.4 26.7Q252.4 27.3 252.6 27.7Q252.7 28.2 253 28.5Q253.2 28.9 253.6 29Q254 29.2 254.5 29.2Q255 29.2 255.4 29Q255.7 28.9 256 28.5Q256.3 28.2 256.4 27.7Q256.6 27.3 256.6 26.7Q256.6 26.1 256.4 25.7Q256.3 25.2 256 24.9Q255.7 24.5 255.4 24.3Q255 24.2 254.5 24.2Q254 24.2 253.6 24.4Q253.2 24.5 253 24.9Q252.7 25.2 252.6 25.7Q252.4 26.1 252.4 26.7ZM258.4 26.7Q258.4 27.7 258.1 28.5Q257.8 29.2 257.2 29.7Q256.7 30.2 256 30.5Q255.3 30.8 254.5 30.8Q253.7 30.8 253 30.5Q252.3 30.2 251.7 29.7Q251.2 29.2 250.9 28.5Q250.6 27.7 250.6 26.7Q250.6 25.7 250.9 24.9Q251.2 24.2 251.8 23.7Q252.3 23.1 253 22.9Q253.7 22.6 254.5 22.6Q255.3 22.6 256 22.9Q256.7 23.1 257.2 23.7Q257.8 24.2 258.1 24.9Q258.4 25.7 258.4 26.7Z M265.7 30.6Q265.6 30.2 265.4 29.8Q265.3 29.3 265.1 28.9H262.1Q262 29.3 261.8 29.8Q261.7 30.2 261.5 30.6H259.7Q260.2 29.3 260.5 28.3Q260.9 27.2 261.3 26.3Q261.7 25.3 262.1 24.5Q262.4 23.6 262.8 22.8H264.5Q264.9 23.6 265.2 24.5Q265.6 25.3 266 26.3Q266.4 27.2 266.8 28.3Q267.2 29.3 267.6 30.6ZM263.6 24.6Q263.6 24.7 263.4 25Q263.3 25.3 263.2 25.7Q263 26.1 262.9 26.6Q262.7 27 262.5 27.5H264.7Q264.6 27 264.4 26.6Q264.2 26.1 264.1 25.7Q263.9 25.3 263.8 25Q263.7 24.7 263.6 24.6Z M271 29.2Q271.2 29.2 271.3 29.2Q271.5 29.2 271.7 29.2Q273 29.2 273.7 28.5Q274.3 27.9 274.3 26.7Q274.3 25.5 273.7 24.8Q273.1 24.2 271.8 24.2Q271.6 24.2 271.4 24.2Q271.2 24.2 271 24.2ZM276.1 26.7Q276.1 27.7 275.8 28.5Q275.5 29.2 274.9 29.7Q274.3 30.2 273.5 30.5Q272.7 30.7 271.6 30.7Q271.2 30.7 270.5 30.7Q269.9 30.6 269.3 30.5V22.9Q269.9 22.8 270.6 22.8Q271.2 22.7 271.7 22.7Q272.7 22.7 273.5 22.9Q274.3 23.2 274.9 23.6Q275.5 24.1 275.8 24.9Q276.1 25.6 276.1 26.7Z M281.8 30.8Q279.9 30.8 278.9 29.7Q277.9 28.6 277.9 26.7Q277.9 25.7 278.2 25Q278.5 24.2 279.1 23.7Q279.6 23.2 280.3 22.9Q281 22.6 281.9 22.6Q282.4 22.6 282.8 22.7Q283.2 22.8 283.5 22.9Q283.8 23 284 23.1Q284.2 23.2 284.3 23.2L283.8 24.6Q283.4 24.4 283 24.3Q282.5 24.2 281.9 24.2Q281.5 24.2 281.1 24.3Q280.7 24.4 280.4 24.7Q280.1 25 279.9 25.5Q279.7 26 279.7 26.7Q279.7 27.2 279.9 27.7Q280 28.1 280.2 28.5Q280.5 28.8 280.9 29Q281.4 29.2 282 29.2Q282.3 29.2 282.7 29.2Q283 29.1 283.2 29.1Q283.4 29 283.6 28.9Q283.8 28.8 283.9 28.8L284.4 30.2Q284 30.4 283.4 30.6Q282.7 30.8 281.8 30.8Z M291.4 30.6Q291.3 30.2 291.2 29.8Q291 29.3 290.9 28.9H287.8Q287.7 29.3 287.5 29.8Q287.4 30.2 287.3 30.6H285.4Q285.9 29.3 286.3 28.3Q286.7 27.2 287 26.3Q287.4 25.3 287.8 24.5Q288.1 23.6 288.5 22.8H290.2Q290.6 23.6 291 24.5Q291.3 25.3 291.7 26.3Q292.1 27.2 292.5 28.3Q292.9 29.3 293.3 30.6ZM289.3 24.6Q289.3 24.7 289.2 25Q289.1 25.3 288.9 25.7Q288.8 26.1 288.6 26.6Q288.4 27 288.2 27.5H290.4Q290.3 27 290.1 26.6Q289.9 26.1 289.8 25.7Q289.6 25.3 289.5 25Q289.4 24.7 289.3 24.6Z M297.1 29.3Q297.5 29.3 297.7 29.2Q298 29.1 298.1 29Q298.3 28.9 298.3 28.8Q298.4 28.6 298.4 28.5Q298.4 28.1 298 27.8Q297.7 27.6 296.8 27.3Q296.4 27.1 296 27Q295.6 26.8 295.3 26.5Q295 26.3 294.8 25.9Q294.7 25.5 294.7 25Q294.7 24.4 294.9 24Q295.1 23.6 295.4 23.3Q295.8 23 296.3 22.8Q296.9 22.6 297.5 22.6Q298.3 22.6 298.9 22.8Q299.5 23 299.8 23.2L299.3 24.5Q299 24.4 298.6 24.3Q298.2 24.1 297.6 24.1Q297 24.1 296.7 24.3Q296.5 24.5 296.5 24.8Q296.5 25 296.6 25.2Q296.7 25.3 296.8 25.5Q297 25.6 297.3 25.7Q297.5 25.8 297.8 25.9Q298.4 26.1 298.9 26.3Q299.3 26.5 299.6 26.8Q299.9 27.1 300.1 27.5Q300.2 27.9 300.2 28.5Q300.2 29.6 299.4 30.2Q298.7 30.8 297.1 30.8Q296.6 30.8 296.2 30.7Q295.8 30.6 295.5 30.5Q295.1 30.5 294.9 30.4Q294.7 30.3 294.5 30.2L295 28.8Q295.4 29 295.9 29.1Q296.4 29.3 297.1 29.3Z M308 22.8V24.3H305.7V30.6H303.9V24.3H301.6V22.8Z M312.6 26.5H315.8V28H312.6Z M326.8 22.8V24.3H324.5V30.6H322.7V24.3H320.4V22.8Z M331 30.6Q330.5 29.6 330 28.6Q329.6 27.5 329.2 26.5Q328.8 25.4 328.4 24.5Q328.1 23.5 327.9 22.8H329.8Q330 23.5 330.3 24.3Q330.5 25 330.8 25.8Q331.1 26.6 331.4 27.3Q331.6 28 331.8 28.5Q332 28 332.3 27.3Q332.6 26.6 332.9 25.8Q333.1 25 333.4 24.3Q333.7 23.5 333.9 22.8H335.8Q335.5 23.5 335.2 24.5Q334.8 25.4 334.4 26.5Q334 27.5 333.6 28.6Q333.1 29.6 332.6 30.6Z M346 30.6Q345.9 30.2 345.8 29.8Q345.6 29.3 345.5 28.9H342.4Q342.3 29.3 342.1 29.8Q342 30.2 341.8 30.6H340Q340.5 29.3 340.9 28.3Q341.3 27.2 341.6 26.3Q342 25.3 342.4 24.5Q342.7 23.6 343.1 22.8H344.8Q345.2 23.6 345.6 24.5Q345.9 25.3 346.3 26.3Q346.7 27.2 347.1 28.3Q347.5 29.3 347.9 30.6ZM343.9 24.6Q343.9 24.7 343.8 25Q343.6 25.3 343.5 25.7Q343.4 26.1 343.2 26.6Q343 27 342.8 27.5H345Q344.9 27 344.7 26.6Q344.5 26.1 344.4 25.7Q344.2 25.3 344.1 25Q344 24.7 343.9 24.6Z M354.8 30.6Q354.1 29.3 353.2 28Q352.3 26.7 351.3 25.5V30.6H349.6V22.8H351Q351.4 23.2 351.9 23.7Q352.3 24.3 352.8 24.9Q353.2 25.5 353.7 26.1Q354.2 26.8 354.6 27.4V22.8H356.3V30.6Z M360.5 29.2Q360.7 29.2 360.8 29.2Q361 29.2 361.2 29.2Q362.5 29.2 363.2 28.5Q363.8 27.9 363.8 26.7Q363.8 25.5 363.2 24.8Q362.6 24.2 361.3 24.2Q361.1 24.2 360.9 24.2Q360.7 24.2 360.5 24.2ZM365.6 26.7Q365.6 27.7 365.3 28.5Q365 29.2 364.4 29.7Q363.8 30.2 363 30.5Q362.2 30.7 361.1 30.7Q360.6 30.7 360 30.7Q359.4 30.6 358.8 30.5V22.9Q359.4 22.8 360 22.8Q360.7 22.7 361.2 22.7Q362.2 22.7 363 22.9Q363.8 23.2 364.4 23.6Q365 24.1 365.3 24.9Q365.6 25.6 365.6 26.7Z M373.4 22.7Q375.2 22.7 376.1 23.3Q377 24 377 25.3Q377 26.1 376.7 26.6Q376.3 27.1 375.6 27.4Q375.8 27.7 376.1 28.1Q376.3 28.5 376.6 28.9Q376.8 29.3 377.1 29.7Q377.3 30.2 377.5 30.6H375.5Q375.3 30.2 375.1 29.8Q374.9 29.4 374.6 29.1Q374.4 28.7 374.2 28.4Q374 28 373.7 27.8H372.9V30.6H371.1V22.9Q371.7 22.8 372.3 22.8Q372.9 22.7 373.4 22.7ZM373.5 24.2Q373.3 24.2 373.2 24.2Q373 24.2 372.9 24.2V26.4H373.4Q374.4 26.4 374.8 26.1Q375.2 25.9 375.2 25.3Q375.2 24.7 374.8 24.5Q374.4 24.2 373.5 24.2Z M384.5 30.6Q384.4 30.2 384.2 29.8Q384.1 29.3 383.9 28.9H380.9Q380.8 29.3 380.6 29.8Q380.5 30.2 380.3 30.6H378.5Q379 29.3 379.3 28.3Q379.7 27.2 380.1 26.3Q380.5 25.3 380.9 24.5Q381.2 23.6 381.6 22.8H383.3Q383.7 23.6 384 24.5Q384.4 25.3 384.8 26.3Q385.2 27.2 385.6 28.3Q386 29.3 386.4 30.6ZM382.4 24.6Q382.4 24.7 382.2 25Q382.1 25.3 382 25.7Q381.8 26.1 381.7 26.6Q381.5 27 381.3 27.5H383.5Q383.3 27 383.2 26.6Q383 26.1 382.9 25.7Q382.7 25.3 382.6 25Q382.5 24.7 382.4 24.6Z M389.8 29.2Q390 29.2 390.1 29.2Q390.3 29.2 390.5 29.2Q391.8 29.2 392.5 28.5Q393.1 27.9 393.1 26.7Q393.1 25.5 392.5 24.8Q391.9 24.2 390.6 24.2Q390.4 24.2 390.2 24.2Q390 24.2 389.8 24.2ZM394.9 26.7Q394.9 27.7 394.6 28.5Q394.3 29.2 393.7 29.7Q393.1 30.2 392.3 30.5Q391.5 30.7 390.4 30.7Q390 30.7 389.3 30.7Q388.7 30.6 388.1 30.5V22.9Q388.7 22.8 389.4 22.8Q390 22.7 390.5 22.7Q391.5 22.7 392.3 22.9Q393.1 23.2 393.7 23.6Q394.3 24.1 394.6 24.9Q394.9 25.6 394.9 26.7Z M397.1 22.8H398.8V30.6H397.1Z M402.8 26.7Q402.8 27.3 402.9 27.7Q403 28.2 403.3 28.5Q403.6 28.9 403.9 29Q404.3 29.2 404.8 29.2Q405.3 29.2 405.7 29Q406.1 28.9 406.4 28.5Q406.6 28.2 406.8 27.7Q406.9 27.3 406.9 26.7Q406.9 26.1 406.8 25.7Q406.6 25.2 406.4 24.9Q406.1 24.5 405.7 24.3Q405.3 24.2 404.8 24.2Q404.3 24.2 403.9 24.4Q403.6 24.5 403.3 24.9Q403 25.2 402.9 25.7Q402.8 26.1 402.8 26.7ZM408.7 26.7Q408.7 27.7 408.4 28.5Q408.1 29.2 407.6 29.7Q407.1 30.2 406.4 30.5Q405.6 30.8 404.8 30.8Q404 30.8 403.3 30.5Q402.6 30.2 402.1 29.7Q401.6 29.2 401.2 28.5Q400.9 27.7 400.9 26.7Q400.9 25.7 401.3 24.9Q401.6 24.2 402.1 23.7Q402.6 23.1 403.3 22.9Q404.1 22.6 404.8 22.6Q405.6 22.6 406.3 22.9Q407 23.1 407.6 23.7Q408.1 24.2 408.4 24.9Q408.7 25.7 408.7 26.7Z M416.3 29.3Q416.7 29.3 417 29.2Q417.2 29.1 417.3 29Q417.5 28.9 417.5 28.8Q417.6 28.6 417.6 28.5Q417.6 28.1 417.2 27.8Q416.9 27.6 416 27.3Q415.6 27.1 415.2 27Q414.9 26.8 414.6 26.5Q414.3 26.3 414.1 25.9Q413.9 25.5 413.9 25Q413.9 24.4 414.1 24Q414.3 23.6 414.6 23.3Q415 23 415.5 22.8Q416.1 22.6 416.7 22.6Q417.5 22.6 418.1 22.8Q418.7 23 419 23.2L418.5 24.5Q418.2 24.4 417.8 24.3Q417.4 24.1 416.9 24.1Q416.2 24.1 415.9 24.3Q415.7 24.5 415.7 24.8Q415.7 25 415.8 25.2Q415.9 25.3 416.1 25.5Q416.2 25.6 416.5 25.7Q416.7 25.8 417 25.9Q417.6 26.1 418.1 26.3Q418.5 26.5 418.8 26.8Q419.1 27.1 419.3 27.5Q419.4 27.9 419.4 28.5Q419.4 29.6 418.7 30.2Q417.9 30.8 416.3 30.8Q415.8 30.8 415.4 30.7Q415 30.6 414.7 30.5Q414.4 30.5 414.1 30.4Q413.9 30.3 413.7 30.2L414.2 28.8Q414.6 29 415.1 29.1Q415.6 29.3 416.3 29.3Z M421.4 30.6V22.8H426.7V24.3H423.2V25.8H426.3V27.2H423.2V29.1H427V30.6Z M431.2 22.7Q433 22.7 433.9 23.3Q434.8 24 434.8 25.3Q434.8 26.1 434.5 26.6Q434.1 27.1 433.4 27.4Q433.6 27.7 433.9 28.1Q434.1 28.5 434.4 28.9Q434.6 29.3 434.9 29.7Q435.1 30.2 435.3 30.6H433.3Q433.1 30.2 432.9 29.8Q432.7 29.4 432.5 29.1Q432.2 28.7 432 28.4Q431.8 28 431.6 27.8H430.7V30.6H428.9V22.9Q429.5 22.8 430.1 22.8Q430.7 22.7 431.2 22.7ZM431.3 24.2Q431.1 24.2 431 24.2Q430.8 24.2 430.7 24.2V26.4H431.2Q432.2 26.4 432.6 26.1Q433 25.9 433 25.3Q433 24.7 432.6 24.5Q432.2 24.2 431.3 24.2Z M439.4 30.6Q439 29.6 438.5 28.6Q438.1 27.5 437.7 26.5Q437.3 25.4 436.9 24.5Q436.6 23.5 436.3 22.8H438.3Q438.5 23.5 438.8 24.3Q439 25 439.3 25.8Q439.6 26.6 439.8 27.3Q440.1 28 440.3 28.5Q440.5 28 440.8 27.3Q441.1 26.6 441.3 25.8Q441.6 25 441.9 24.3Q442.1 23.5 442.4 22.8H444.2Q444 23.5 443.6 24.5Q443.3 25.4 442.9 26.5Q442.5 27.5 442 28.6Q441.6 29.6 441.1 30.6Z M445.9 22.8H447.7V30.6H445.9Z M453.7 30.8Q451.8 30.8 450.8 29.7Q449.8 28.6 449.8 26.7Q449.8 25.7 450.1 25Q450.4 24.2 450.9 23.7Q451.5 23.2 452.2 22.9Q452.9 22.6 453.8 22.6Q454.3 22.6 454.7 22.7Q455.1 22.8 455.4 22.9Q455.7 23 455.9 23.1Q456.1 23.2 456.2 23.2L455.7 24.6Q455.3 24.4 454.8 24.3Q454.4 24.2 453.8 24.2Q453.4 24.2 453 24.3Q452.6 24.4 452.3 24.7Q452 25 451.8 25.5Q451.6 26 451.6 26.7Q451.6 27.2 451.7 27.7Q451.9 28.1 452.1 28.5Q452.4 28.8 452.8 29Q453.2 29.2 453.9 29.2Q454.2 29.2 454.5 29.2Q454.8 29.1 455.1 29.1Q455.3 29 455.5 28.9Q455.7 28.8 455.8 28.8L456.3 30.2Q455.9 30.4 455.3 30.6Q454.6 30.8 453.7 30.8Z M458.1 30.6V22.8H463.4V24.3H459.9V25.8H463V27.2H459.9V29.1H463.6V30.6Z M467.7 29.3Q468.1 29.3 468.3 29.2Q468.6 29.1 468.7 29Q468.9 28.9 468.9 28.8Q469 28.6 469 28.5Q469 28.1 468.6 27.8Q468.3 27.6 467.4 27.3Q467 27.1 466.6 27Q466.2 26.8 465.9 26.5Q465.6 26.3 465.4 25.9Q465.2 25.5 465.2 25Q465.2 24.4 465.5 24Q465.7 23.6 466 23.3Q466.4 23 466.9 22.8Q467.5 22.6 468.1 22.6Q468.9 22.6 469.5 22.8Q470.1 23 470.4 23.2L469.9 24.5Q469.6 24.4 469.2 24.3Q468.8 24.1 468.2 24.1Q467.6 24.1 467.3 24.3Q467.1 24.5 467.1 24.8Q467.1 25 467.2 25.2Q467.3 25.3 467.4 25.5Q467.6 25.6 467.9 25.7Q468.1 25.8 468.4 25.9Q469 26.1 469.5 26.3Q469.9 26.5 470.2 26.8Q470.5 27.1 470.7 27.5Q470.8 27.9 470.8 28.5Q470.8 29.6 470 30.2Q469.3 30.8 467.7 30.8Q467.2 30.8 466.8 30.7Q466.4 30.6 466.1 30.5Q465.7 30.5 465.5 30.4Q465.3 30.3 465.1 30.2L465.6 28.8Q466 29 466.5 29.1Q467 29.3 467.7 29.3Z" fill="#fff"/>
  <path d="M97.6 51.6Q97.6 51 97.3 50.4Q97 49.9 96.3 49.6Q95.6 49.3 94.4 49.1Q93.1 48.9 91.3 48.9Q91.5 46.8 91.7 44.7Q91.9 42.5 92 40.6H100.4V43.4H94.8Q94.7 44.2 94.7 45Q94.6 45.7 94.5 46.3Q97.8 46.5 99.4 47.8Q101 49.2 101 51.5Q101 52.6 100.6 53.5Q100.2 54.4 99.4 55.1Q98.7 55.8 97.5 56.1Q96.3 56.5 94.8 56.5Q94.2 56.5 93.5 56.5Q92.9 56.4 92.2 56.3Q91.6 56.1 91.1 56Q90.6 55.9 90.4 55.7L91 53Q91.5 53.2 92.4 53.4Q93.4 53.7 94.7 53.7Q96.2 53.7 96.9 53.1Q97.6 52.4 97.6 51.6Z M111.7 43.3Q109.2 43.3 108.1 44.7Q107 46 107 48.4Q107 49.5 107.3 50.5Q107.6 51.4 108.1 52.1Q108.7 52.8 109.5 53.1Q110.3 53.5 111.4 53.5Q112 53.5 112.4 53.5Q112.8 53.4 113.1 53.4V48H116.6V55.7Q116 55.9 114.6 56.2Q113.2 56.5 111.1 56.5Q109.4 56.5 108 55.9Q106.5 55.4 105.5 54.4Q104.5 53.3 104 51.8Q103.4 50.3 103.4 48.4Q103.4 46.4 104 44.9Q104.6 43.4 105.7 42.4Q106.7 41.3 108.2 40.8Q109.6 40.2 111.2 40.2Q112.3 40.2 113.2 40.4Q114.1 40.5 114.7 40.7Q115.4 40.9 115.8 41.1Q116.2 41.3 116.4 41.4L115.4 44.2Q114.7 43.9 113.7 43.6Q112.8 43.3 111.7 43.3Z M130.5 56.4Q129.2 56.4 127.9 56.3Q126.6 56.2 125.3 55.9V40.8Q126.4 40.6 127.6 40.5Q128.9 40.4 130 40.4Q131.5 40.4 132.8 40.6Q134 40.8 134.9 41.4Q135.8 41.9 136.3 42.7Q136.8 43.6 136.8 44.8Q136.8 46.7 135 47.8Q136.5 48.3 137 49.3Q137.6 50.3 137.6 51.5Q137.6 53.9 135.8 55.2Q134 56.4 130.5 56.4ZM128.7 49.4V53.4Q129.1 53.5 129.5 53.5Q130 53.5 130.5 53.5Q132.1 53.5 133.1 53.1Q134 52.6 134 51.4Q134 50.3 133.2 49.9Q132.4 49.4 130.9 49.4ZM128.7 46.7H130.4Q132 46.7 132.7 46.3Q133.4 45.9 133.4 45Q133.4 44 132.7 43.6Q132 43.3 130.6 43.3Q130.1 43.3 129.6 43.3Q129.1 43.3 128.7 43.3Z M147.3 47.3Q146.9 47.2 146.2 47.1Q145.6 47 144.9 47Q144.6 47 144.2 47Q143.7 47.1 143.5 47.1V56.2H140.2V45Q141.1 44.7 142.3 44.4Q143.5 44.1 145 44.1Q145.3 44.1 145.7 44.1Q146.1 44.2 146.4 44.2Q146.8 44.3 147.2 44.4Q147.6 44.4 147.9 44.6Z M160.7 50.3Q160.7 51.6 160.3 52.8Q159.9 54 159.2 54.8Q158.4 55.6 157.3 56.1Q156.3 56.5 154.9 56.5Q153.6 56.5 152.6 56.1Q151.5 55.6 150.7 54.8Q150 54 149.5 52.8Q149.1 51.6 149.1 50.3Q149.1 48.9 149.5 47.7Q150 46.6 150.8 45.8Q151.5 44.9 152.6 44.5Q153.7 44 154.9 44Q156.2 44 157.3 44.5Q158.3 44.9 159.1 45.8Q159.9 46.6 160.3 47.7Q160.7 48.9 160.7 50.3ZM157.3 50.3Q157.3 48.7 156.7 47.8Q156.1 46.9 154.9 46.9Q153.8 46.9 153.2 47.8Q152.5 48.7 152.5 50.3Q152.5 51.8 153.2 52.7Q153.8 53.6 154.9 53.6Q156.1 53.6 156.7 52.7Q157.3 51.8 157.3 50.3Z M167.8 53.9Q168.3 53.9 168.8 53.8Q169.2 53.8 169.5 53.8V51.2Q169.3 51.2 168.9 51.1Q168.5 51.1 168.2 51.1Q167.7 51.1 167.3 51.1Q166.9 51.2 166.5 51.4Q166.2 51.5 166 51.8Q165.9 52.1 165.9 52.5Q165.9 53.2 166.4 53.6Q166.9 53.9 167.8 53.9ZM167.6 44Q169.1 44 170.1 44.4Q171 44.7 171.6 45.3Q172.2 46 172.5 46.9Q172.7 47.8 172.7 48.9V55.9Q172 56 170.7 56.2Q169.4 56.4 167.6 56.4Q166.5 56.4 165.5 56.2Q164.6 56 163.9 55.6Q163.3 55.1 162.9 54.4Q162.5 53.6 162.5 52.5Q162.5 51.5 163 50.8Q163.4 50.1 164.1 49.6Q164.8 49.2 165.7 49Q166.6 48.8 167.5 48.8Q168.2 48.8 168.7 48.9Q169.2 48.9 169.5 49V48.7Q169.5 47.9 169 47.4Q168.5 46.8 167.2 46.8Q166.3 46.8 165.5 47Q164.7 47.1 164.1 47.3L163.6 44.6Q163.9 44.5 164.4 44.4Q164.8 44.3 165.3 44.2Q165.8 44.2 166.4 44.1Q167 44 167.6 44Z M178.6 50.2Q178.6 51.7 179.3 52.7Q180 53.6 181.4 53.6Q181.8 53.6 182.2 53.6Q182.6 53.6 182.9 53.5V47.4Q182.5 47.2 182 47.1Q181.5 46.9 181 46.9Q178.6 46.9 178.6 50.2ZM186.2 55.8Q185.8 55.9 185.2 56.1Q184.6 56.2 183.9 56.3Q183.3 56.4 182.6 56.4Q182 56.5 181.4 56.5Q179.9 56.5 178.8 56.1Q177.6 55.6 176.8 54.8Q176 54 175.6 52.9Q175.2 51.8 175.2 50.3Q175.2 48.9 175.6 47.7Q175.9 46.6 176.6 45.8Q177.3 45 178.3 44.5Q179.2 44.1 180.5 44.1Q181.2 44.1 181.7 44.2Q182.3 44.4 182.9 44.6V39.3L186.2 38.7Z M188.8 50.3Q188.8 49 189.2 47.9Q189.6 46.7 190.4 45.9Q191.2 45 192.3 44.5Q193.4 44 194.9 44Q195.8 44 196.6 44.2Q197.4 44.4 198.2 44.7L197.5 47.4Q197 47.2 196.4 47.1Q195.9 46.9 195.2 46.9Q193.7 46.9 192.9 47.8Q192.2 48.8 192.2 50.3Q192.2 51.9 192.9 52.8Q193.6 53.6 195.3 53.6Q195.9 53.6 196.6 53.5Q197.3 53.4 197.9 53.2L198.4 55.9Q197.8 56.1 196.9 56.3Q196 56.5 195 56.5Q193.3 56.5 192.2 56Q191 55.5 190.2 54.7Q189.5 53.9 189.1 52.7Q188.8 51.6 188.8 50.3Z M205.1 53.9Q205.6 53.9 206.1 53.8Q206.5 53.8 206.8 53.8V51.2Q206.6 51.2 206.2 51.1Q205.8 51.1 205.4 51.1Q205 51.1 204.6 51.1Q204.1 51.2 203.8 51.4Q203.5 51.5 203.3 51.8Q203.1 52.1 203.1 52.5Q203.1 53.2 203.7 53.6Q204.2 53.9 205.1 53.9ZM204.9 44Q206.3 44 207.3 44.4Q208.3 44.7 208.9 45.3Q209.5 46 209.8 46.9Q210 47.8 210 48.9V55.9Q209.3 56 208 56.2Q206.7 56.4 204.9 56.4Q203.8 56.4 202.8 56.2Q201.9 56 201.2 55.6Q200.5 55.1 200.2 54.4Q199.8 53.6 199.8 52.5Q199.8 51.5 200.2 50.8Q200.7 50.1 201.3 49.6Q202 49.2 202.9 49Q203.8 48.8 204.8 48.8Q205.5 48.8 206 48.9Q206.5 48.9 206.8 49V48.7Q206.8 47.9 206.3 47.4Q205.8 46.8 204.5 46.8Q203.6 46.8 202.8 47Q202 47.1 201.3 47.3L200.9 44.6Q201.2 44.5 201.7 44.4Q202.1 44.3 202.6 44.2Q203.1 44.2 203.7 44.1Q204.3 44 204.9 44Z M216.4 53.8Q217.4 53.8 217.8 53.6Q218.1 53.4 218.1 52.9Q218.1 52.5 217.6 52.2Q217.1 51.9 216.1 51.5Q215.3 51.2 214.7 50.9Q214.1 50.6 213.6 50.2Q213.2 49.7 212.9 49.1Q212.7 48.5 212.7 47.6Q212.7 46 213.9 45Q215.1 44 217.3 44Q218.4 44 219.4 44.2Q220.4 44.4 220.9 44.7L220.4 47.3Q219.8 47.1 219.1 46.9Q218.4 46.7 217.5 46.7Q216 46.7 216 47.6Q216 47.8 216 48Q216.1 48.1 216.3 48.3Q216.5 48.4 216.9 48.6Q217.2 48.8 217.8 49Q218.9 49.4 219.6 49.8Q220.3 50.2 220.7 50.6Q221.1 51.1 221.3 51.6Q221.5 52.2 221.5 53Q221.5 54.7 220.1 55.6Q218.8 56.5 216.4 56.5Q214.8 56.5 213.8 56.2Q212.8 56 212.3 55.8L212.9 53.1Q213.8 53.4 214.7 53.6Q215.6 53.8 216.4 53.8Z M223.8 41.4 227.2 40.9V44.4H231.2V47.1H227.2V51.3Q227.2 52.4 227.6 53Q227.9 53.6 229.1 53.6Q229.6 53.6 230.2 53.5Q230.8 53.4 231.2 53.2L231.7 55.9Q231.1 56.1 230.3 56.3Q229.6 56.5 228.5 56.5Q227.2 56.5 226.3 56.1Q225.4 55.7 224.8 55.1Q224.3 54.4 224.1 53.4Q223.8 52.5 223.8 51.4Z M251.1 40.6V43.6H246.4V56.2H242.9V43.6H238.2V40.6Z M260.3 47.3Q259.8 47.2 259.2 47.1Q258.6 47 257.9 47Q257.6 47 257.2 47Q256.7 47.1 256.5 47.1V56.2H253.2V45Q254.1 44.7 255.3 44.4Q256.5 44.1 258 44.1Q258.3 44.1 258.7 44.1Q259.1 44.2 259.4 44.2Q259.8 44.3 260.2 44.4Q260.6 44.4 260.9 44.6Z M267.2 53.9Q267.7 53.9 268.1 53.8Q268.6 53.8 268.8 53.8V51.2Q268.6 51.2 268.2 51.1Q267.8 51.1 267.5 51.1Q267 51.1 266.6 51.1Q266.2 51.2 265.9 51.4Q265.6 51.5 265.4 51.8Q265.2 52.1 265.2 52.5Q265.2 53.2 265.7 53.6Q266.3 53.9 267.2 53.9ZM266.9 44Q268.4 44 269.4 44.4Q270.4 44.7 271 45.3Q271.6 46 271.8 46.9Q272.1 47.8 272.1 48.9V55.9Q271.3 56 270.1 56.2Q268.8 56.4 267 56.4Q265.8 56.4 264.9 56.2Q263.9 56 263.3 55.6Q262.6 55.1 262.2 54.4Q261.9 53.6 261.9 52.5Q261.9 51.5 262.3 50.8Q262.7 50.1 263.4 49.6Q264.1 49.2 265 49Q265.9 48.8 266.9 48.8Q267.5 48.8 268 48.9Q268.5 48.9 268.8 49V48.7Q268.8 47.9 268.3 47.4Q267.8 46.8 266.5 46.8Q265.7 46.8 264.8 47Q264 47.1 263.4 47.3L263 44.6Q263.3 44.5 263.7 44.4Q264.1 44.3 264.7 44.2Q265.2 44.2 265.8 44.1Q266.3 44 266.9 44Z M275.1 44.8Q276 44.5 277.3 44.3Q278.7 44.1 280.1 44.1Q281.6 44.1 282.7 44.5Q283.7 44.9 284.2 45.6Q284.8 46.3 285.1 47.3Q285.3 48.3 285.3 49.5V56.2H282V49.9Q282 48.3 281.5 47.6Q281.1 46.9 279.9 46.9Q279.6 46.9 279.2 47Q278.8 47 278.5 47.1V56.2H275.1Z M291.8 53.8Q292.7 53.8 293.1 53.6Q293.4 53.4 293.4 52.9Q293.4 52.5 292.9 52.2Q292.4 51.9 291.4 51.5Q290.6 51.2 290 50.9Q289.4 50.6 288.9 50.2Q288.5 49.7 288.2 49.1Q288 48.5 288 47.6Q288 46 289.2 45Q290.4 44 292.6 44Q293.7 44 294.7 44.2Q295.7 44.4 296.3 44.7L295.7 47.3Q295.1 47.1 294.4 46.9Q293.7 46.7 292.9 46.7Q291.3 46.7 291.3 47.6Q291.3 47.8 291.3 48Q291.4 48.1 291.6 48.3Q291.8 48.4 292.2 48.6Q292.5 48.8 293.1 49Q294.2 49.4 294.9 49.8Q295.6 50.2 296 50.6Q296.4 51.1 296.6 51.6Q296.8 52.2 296.8 53Q296.8 54.7 295.5 55.6Q294.1 56.5 291.7 56.5Q290.2 56.5 289.1 56.2Q288.1 56 287.7 55.8L288.2 53.1Q289.1 53.4 290 53.6Q290.9 53.8 291.8 53.8Z M305.8 49.9Q305.8 48.3 305.4 47.6Q304.9 46.9 303.9 46.9Q303.6 46.9 303.3 47Q302.9 47 302.6 47.1V56.2H299.3V44.8Q299.7 44.7 300.3 44.5Q300.8 44.4 301.5 44.3Q302.1 44.2 302.8 44.1Q303.5 44.1 304.1 44.1Q305.4 44.1 306.2 44.4Q307 44.7 307.5 45.2Q308.2 44.7 309.2 44.4Q310.1 44.1 310.9 44.1Q312.3 44.1 313.2 44.5Q314.1 44.9 314.7 45.6Q315.2 46.3 315.4 47.3Q315.6 48.3 315.6 49.5V56.2H312.3V49.9Q312.3 48.3 311.9 47.6Q311.4 46.9 310.4 46.9Q310.2 46.9 309.7 47.1Q309.2 47.2 308.9 47.4Q309 47.9 309.1 48.5Q309.1 49.1 309.1 49.7V56.2H305.8Z M322 56.2H318.7V44.4H322ZM322.3 40.9Q322.3 41.9 321.7 42.4Q321.1 42.9 320.3 42.9Q319.5 42.9 318.9 42.4Q318.3 41.9 318.3 40.9Q318.3 40 318.9 39.5Q319.5 39 320.3 39Q321.1 39 321.7 39.5Q322.3 40 322.3 40.9Z M325.1 41.4 328.4 40.9V44.4H332.4V47.1H328.4V51.3Q328.4 52.4 328.8 53Q329.1 53.6 330.3 53.6Q330.8 53.6 331.4 53.5Q332 53.4 332.4 53.2L332.9 55.9Q332.3 56.1 331.6 56.3Q330.8 56.5 329.7 56.5Q328.4 56.5 327.5 56.1Q326.6 55.7 326 55.1Q325.5 54.4 325.3 53.4Q325.1 52.5 325.1 51.4Z M335 41.4 338.4 40.9V44.4H342.4V47.1H338.4V51.3Q338.4 52.4 338.8 53Q339.1 53.6 340.3 53.6Q340.8 53.6 341.4 53.5Q341.9 53.4 342.4 53.2L342.9 55.9Q342.3 56.1 341.5 56.3Q340.8 56.5 339.7 56.5Q338.3 56.5 337.4 56.1Q336.6 55.7 336 55.1Q335.5 54.4 335.3 53.4Q335 52.5 335 51.4Z M344.6 50.4Q344.6 48.8 345.1 47.6Q345.6 46.4 346.3 45.6Q347.1 44.9 348.1 44.4Q349.2 44 350.3 44Q352.8 44 354.2 45.6Q355.7 47.1 355.7 50.1Q355.7 50.4 355.7 50.8Q355.7 51.1 355.6 51.4H348Q348.1 52.4 349 53Q349.8 53.6 351.3 53.6Q352.2 53.6 353.1 53.5Q354 53.3 354.6 53L355 55.8Q354.7 55.9 354.3 56Q353.8 56.2 353.3 56.3Q352.7 56.4 352.1 56.4Q351.5 56.5 350.8 56.5Q349.2 56.5 348.1 56Q346.9 55.6 346.1 54.7Q345.3 53.9 345 52.8Q344.6 51.7 344.6 50.4ZM352.5 49.1Q352.4 48.7 352.3 48.3Q352.2 47.8 351.9 47.5Q351.7 47.2 351.3 47Q350.9 46.8 350.3 46.8Q349.7 46.8 349.3 47Q348.9 47.2 348.7 47.5Q348.4 47.8 348.2 48.2Q348.1 48.7 348 49.1Z M365.4 47.3Q365 47.2 364.4 47.1Q363.8 47 363.1 47Q362.7 47 362.3 47Q361.9 47.1 361.6 47.1V56.2H358.3V45Q359.2 44.7 360.4 44.4Q361.6 44.1 363.1 44.1Q363.4 44.1 363.8 44.1Q364.2 44.2 364.6 44.2Q364.9 44.3 365.3 44.4Q365.7 44.4 366 44.6Z" fill="#fff"/>
</svg>
